<svg version="1.0" xmlns="http://www.w3.org/2000/svg" width="512.000000pt" height="512.000000pt" viewBox="0 0 512.000000 512.000000" preserveAspectRatio="xMidYMid meet">
<g transform="translate(0.000000,512.000000) scale(0.100000,-0.100000)" fill="#8b4513" stroke="none">
<path d="M2140 5110 c-286 -27 -571 -113 -825 -249 -721 -387 -1177 -1072 -1272 -1911 -26 -230 -15 -515 25 -710 165 -801 680 -1446 1422 -1780 238 -107 449 -164 720 -195 139 -16 481 -6 620 18 726 127 1356 563 1735 1202 244 411 364 858 364 1355 0 347 -55 647 -179 975 -339 900 -1084 1489 -2015 1594 -119 13 -476 14 -595 1z m580 -459 c663 -101 1235 -523 1530 -1129 119 -244 178 -475 187 -732 21 -591 -186 -1151 -582 -1575 -396 -424 -924 -675 -1505 -715 -148 -10 -410 -4 -545 13 -591 74 -1123 379 -1491 855 -244 316 -398 682 -464 1102 -22 140 -25 410 -6 545 74 530 293 986 651 1355 424 437 985 690 1615 728 83 5 527 -3 610 -12z"/>
<path d="M2298 4454 c-5 -4 -8 -21 -8 -38 0 -27 -4 -31 -32 -34 -43 -5 -68 -36 -68 -85 0 -49 25 -80 68 -85 28 -3 32 -7 32 -34 0 -17 3 -34 8 -38 11 -11 62 -11 73 0 5 4 8 21 8 38 0 27 4 31 32 34 43 5 68 36 68 85 0 49 -25 80 -68 85 -28 3 -32 7 -32 34 0 17 -3 34 -8 38 -11 11 -62 11 -73 0z"/>
<path d="M1870 3980 c-60 -60 -4 -160 82 -148 38 5 68 35 68 68 0 33 -30 63 -68 68 -19 2 -42 -3 -57 -12 -20 -12 -25 -12 -25 4z"/>
<path d="M2720 3980 c-15 -15 -20 -33 -20 -70 0 -50 3 -54 35 -68 49 -22 95 -5 117 42 32 68 -21 136 -94 120 -19 -4 -28 -1 -38 14z"/>
</g>
</svg>